<svg width="15" height="17" viewBox="0 0 15 17" fill="none" xmlns="http://www.w3.org/2000/svg">
<path fill-rule="evenodd" clip-rule="evenodd" d="M9.92549 2.18066L2.07966 11.9932C1.93716 12.1715 1.88466 12.4015 1.93716 12.6223L2.50466 15.0265L5.03716 14.9948C5.27799 14.9923 5.50049 14.8848 5.64799 14.7015C8.32883 11.3473 13.4397 4.95232 13.5847 4.76482C13.7213 4.54316 13.7747 4.22982 13.703 3.92816C13.6297 3.61899 13.4372 3.35649 13.1597 3.18899C13.1005 3.14816 11.6963 2.05816 11.653 2.02399C11.1247 1.60066 10.3538 1.67399 9.92549 2.18066ZM2.01133 16.2832C1.72216 16.2832 1.47049 16.0848 1.40299 15.8023L0.720493 12.9098C0.57966 12.3107 0.71966 11.6923 1.10383 11.2123L8.95383 1.39399C8.95716 1.39066 8.95966 1.38649 8.96299 1.38316C9.82383 0.353991 11.3805 0.202324 12.4305 1.04482C12.4722 1.07732 13.8663 2.16066 13.8663 2.16066C14.373 2.46232 14.7688 3.00149 14.9188 3.63982C15.068 4.27149 14.9597 4.92316 14.6122 5.47399C14.5863 5.51482 14.5638 5.54982 6.62383 15.4832C6.24133 15.9598 5.66799 16.2373 5.05216 16.2448L2.01966 16.2832H2.01133Z" fill="#3E5468"/>
</svg>
