<svg width="14" height="14" viewBox="0 0 14 14" fill="none" xmlns="http://www.w3.org/2000/svg">
<path fill-rule="evenodd" clip-rule="evenodd" d="M4.84895 6.73246C4.86095 6.74313 4.87228 6.75313 4.88362 6.76513C5.60295 7.50246 5.99962 8.47913 5.99962 9.5158V12.1718L7.49028 11.3598C7.60762 11.2958 7.68029 11.1705 7.68029 11.0325V9.5078C7.68029 8.47513 8.07295 7.5018 8.78562 6.76846L12.0103 3.33846C12.219 3.11646 12.3336 2.82513 12.3336 2.5178V1.8938C12.3336 1.58446 12.0896 1.33313 11.791 1.33313H1.87695C1.57762 1.33313 1.33362 1.58446 1.33362 1.8938V2.5178C1.33362 2.82513 1.44828 3.11646 1.65695 3.3378L4.84895 6.73246ZM5.76429 13.3338C5.62962 13.3338 5.49628 13.2978 5.37495 13.2258C5.14029 13.0858 4.99962 12.8385 4.99962 12.5638V9.5158C4.99962 8.75913 4.71762 8.04646 4.20362 7.50046C4.18828 7.4878 4.17295 7.4738 4.15962 7.45913L0.928952 4.0238C0.544952 3.6158 0.333618 3.08046 0.333618 2.5178V1.8938C0.333618 1.03313 1.02628 0.33313 1.87695 0.33313H11.791C12.641 0.33313 13.3336 1.03313 13.3336 1.8938V2.5178C13.3336 3.0798 13.1223 3.61446 12.7396 4.02313L9.50829 7.45913C8.97295 8.01113 8.68029 8.73713 8.68029 9.5078V11.0325C8.68029 11.5365 8.40762 11.9978 7.96895 12.2378L6.12829 13.2405C6.01362 13.3025 5.88895 13.3338 5.76429 13.3338Z" fill="#4B5563"/>
</svg>
