<svg width="20" height="20" viewBox="0 0 20 20" fill="none" xmlns="http://www.w3.org/2000/svg">
<path fill-rule="evenodd" clip-rule="evenodd" d="M5.66976 -0.000854492H14.3398C17.7298 -0.000854492 19.9998 2.37915 19.9998 5.91915V14.0901C19.9998 17.6201 17.7298 19.9991 14.3398 19.9991H5.66976C2.27976 19.9991 -0.000244141 17.6201 -0.000244141 14.0901V5.91915C-0.000244141 2.37915 2.27976 -0.000854492 5.66976 -0.000854492ZM13.0098 12.9991C13.3498 12.6601 13.3498 12.1101 13.0098 11.7701L11.2298 9.99015L13.0098 8.20915C13.3498 7.87015 13.3498 7.31015 13.0098 6.97015C12.6698 6.62915 12.1198 6.62915 11.7698 6.97015L9.99976 8.74915L8.21976 6.97015C7.86976 6.62915 7.31976 6.62915 6.97976 6.97015C6.63976 7.31015 6.63976 7.87015 6.97976 8.20915L8.75976 9.99015L6.97976 11.7601C6.63976 12.1101 6.63976 12.6601 6.97976 12.9991C7.14976 13.1691 7.37976 13.2601 7.59976 13.2601C7.82976 13.2601 8.04976 13.1691 8.21976 12.9991L9.99976 11.2301L11.7798 12.9991C11.9498 13.1801 12.1698 13.2601 12.3898 13.2601C12.6198 13.2601 12.8398 13.1691 13.0098 12.9991Z" fill="#727782"/>
</svg>
